# xmcd CD database file generated by Grip 2.96
# 
# Track frame offsets:
#       182
#       17260
#       31362
#       43810
#       57685
#       70660
#       82060
#       93235
#       105010
#       118960
#       129610
#       147982
#       162385
#       177535
#       192082
# 
# Disc length: 2764 seconds
# 
# Revision: 0
# Processed by: cddbd v1.4PL0 Copyright (c) Steve Scherf et al.
# Submitted via: Grip 2.96
# 
DISCID=cf0aca0f
DTITLE=Desoto - Take This Veil
DYEAR=1900
DGENRE=
TTITLE0=Cool Town Man
TTITLE1=Can't Stand To See You Go
TTITLE2=Dizzy
TTITLE3=Loose Cannons
TTITLE4=I Like It This Way
TTITLE5=21 Days In Jail
TTITLE6=Steppin' Out
TTITLE7=Little Mixed Up
TTITLE8=I Wanna Be Loved
TTITLE9=No Matter How Much
TTITLE10=Down Deep Inside
TTITLE11=Way She Done It
TTITLE12=Ain't Superstitious
TTITLE13=T-bone Shuffle
TTITLE14=All Of Your Love
EXTD=
EXTT0=
EXTT1=
EXTT2=
EXTT3=
EXTT4=
EXTT5=
EXTT6=
EXTT7=
EXTT8=
EXTT9=
EXTT10=
EXTT11=
EXTT12=
EXTT13=
EXTT14=
PLAYORDER=
